<svg xmlns="http://www.w3.org/2000/svg" width="37.693" height="33.119" viewBox="0 0 37.693 33.119">
  <path id="heart" d="M27.476,1.917A10.047,10.047,0,0,0,18.842,7.1a10.047,10.047,0,0,0-8.635-5.181A10.675,10.675,0,0,0,0,12.985c0,7.138,7.514,14.935,13.815,20.22a7.809,7.809,0,0,0,10.047,0c6.3-5.286,13.815-13.082,13.815-20.22a10.675,10.675,0,0,0-10.2-11.068ZM21.848,30.8a4.667,4.667,0,0,1-6.013,0C7.769,24.036,3.143,17.542,3.143,12.985a7.536,7.536,0,0,1,7.065-7.928,7.536,7.536,0,0,1,7.065,7.928,1.57,1.57,0,0,0,3.14,0,7.536,7.536,0,0,1,7.065-7.928,7.536,7.536,0,0,1,7.065,7.928c0,4.557-4.627,11.051-12.693,17.812Z" transform="translate(0.005 -1.917)" fill="#fff" opacity="0.5"/>
</svg>
