<svg xmlns="http://www.w3.org/2000/svg" width="34.234" height="22.581" viewBox="0 0 34.234 22.581">
  <g id="Group_1019" data-name="Group 1019" transform="translate(34.234 22.581) rotate(180)" opacity="0.54">
    <path id="Path_4442" data-name="Path 4442" d="M6.779,22.554c.659-1.439,1.269-2.626,1.745-3.864a9.206,9.206,0,0,0,.559-2.446c.1-1.111.034-1.112-1.072-1.128a7.8,7.8,0,0,1-6.969-3.934A7.431,7.431,0,0,1,7.222,0c4.114-.11,7.524,2.16,8.415,5.7a9.912,9.912,0,0,1-.472,5.834A23.914,23.914,0,0,1,7.354,22.186C7.244,22.274,7.116,22.34,6.779,22.554Z" transform="translate(0 0.027)" fill="#fff"/>
    <path id="Path_4443" data-name="Path 4443" d="M6.941,22.482c.7-1.776,1.36-3.445,2.018-5.114a1.871,1.871,0,0,0,.1-.334c.309-1.638.129-1.861-1.512-1.9A7.877,7.877,0,0,1,0,7.19C.039,3.331,3.524.131,7.6,0s7.59,3.02,8.1,5.917A11.154,11.154,0,0,1,15.019,12,24.354,24.354,0,0,1,7.482,22.121C7.329,22.246,7.153,22.342,6.941,22.482Z" transform="translate(18.371 0)" fill="#fff"/>
  </g>
</svg>
