<svg id="time-fast" xmlns="http://www.w3.org/2000/svg" width="17.935" height="17.94" viewBox="0 0 17.935 17.94">
  <path id="Path_4435" data-name="Path 4435" d="M6.726,23.495H.747A.747.747,0,1,1,.747,22H6.726a.747.747,0,1,1,0,1.495Z" transform="translate(0 -5.554)" fill="#00baff"/>
  <path id="Path_4436" data-name="Path 4436" d="M5.231,19.495H.747A.747.747,0,1,1,.747,18H5.231a.747.747,0,1,1,0,1.495Z" transform="translate(0 -4.544)" fill="#00baff"/>
  <path id="Path_4437" data-name="Path 4437" d="M3.736,15.495H.747A.747.747,0,1,1,.747,14H3.736a.747.747,0,1,1,0,1.495Z" transform="translate(0 -3.533)" fill="#00baff"/>
  <path id="Path_4438" data-name="Path 4438" d="M9.726,17.9a.748.748,0,1,1-.067-1.495A7.473,7.473,0,1,0,1.537,8.286.747.747,0,1,1,.048,8.151,8.968,8.968,0,1,1,9.793,17.9C9.771,17.9,9.748,17.9,9.726,17.9Z" transform="translate(-0.011 0.007)" fill="#00baff"/>
  <path id="Path_4439" data-name="Path 4439" d="M11.747,6A.747.747,0,0,0,11,6.747v3.736a.747.747,0,0,0,.219.528l2.242,2.242A.747.747,0,1,0,14.518,12.2l-2.023-2.023V6.747A.747.747,0,0,0,11.747,6Z" transform="translate(-2.78 -1.511)" fill="#00baff"/>
</svg>
