<svg xmlns="http://www.w3.org/2000/svg" width="16.72" height="22.293" viewBox="0 0 16.72 22.293">
  <g id="user_3_" data-name="user (3)" transform="translate(-3)">
    <path id="Path_4440" data-name="Path 4440" d="M11.573,11.146A5.573,5.573,0,1,0,6,5.573a5.573,5.573,0,0,0,5.573,5.573Zm0-9.289A3.715,3.715,0,1,1,7.858,5.573a3.715,3.715,0,0,1,3.715-3.715Z" transform="translate(-0.213)" fill="#00baff"/>
    <path id="Path_4441" data-name="Path 4441" d="M11.36,14A8.369,8.369,0,0,0,3,22.36a.929.929,0,1,0,1.858,0,6.5,6.5,0,0,1,13,0,.929.929,0,0,0,1.858,0A8.369,8.369,0,0,0,11.36,14Z" transform="translate(0 -0.996)" fill="#00baff"/>
  </g>
</svg>
