<svg xmlns="http://www.w3.org/2000/svg" width="79" height="79" viewBox="0 0 79 79">
  <g id="Group_1044" data-name="Group 1044" transform="translate(-311 -335)">
    <g id="megaphone" transform="translate(329 297)">
      <g id="Group_1037" data-name="Group 1037" transform="translate(36.236 76.205)">
        <g id="Group_1036" data-name="Group 1036">
          <path id="Path_4486" data-name="Path 4486" d="M443.211,241h-4.658a1.553,1.553,0,0,0,0,3.105h4.658a1.553,1.553,0,0,0,0-3.105Z" transform="translate(-437 -241)" fill="#fff"/>
        </g>
      </g>
      <g id="Group_1039" data-name="Group 1039" transform="translate(34.684 80.858)">
        <g id="Group_1038" data-name="Group 1038">
          <path id="Path_4487" data-name="Path 4487" d="M427.756,304.561l-3.105-3.105a1.553,1.553,0,1,0-2.2,2.2l3.105,3.105a1.553,1.553,0,0,0,2.2-2.2Z" transform="translate(-422 -301.001)" fill="#fff"/>
        </g>
      </g>
      <g id="Group_1041" data-name="Group 1041" transform="translate(34.684 68.447)">
        <g id="Group_1040" data-name="Group 1040">
          <path id="Path_4488" data-name="Path 4488" d="M427.756,151.456a1.553,1.553,0,0,0-2.2,0l-3.105,3.105a1.553,1.553,0,1,0,2.2,2.2l3.105-3.105A1.553,1.553,0,0,0,427.756,151.456Z" transform="translate(-422 -151.001)" fill="#fff"/>
        </g>
      </g>
      <g id="Group_1043" data-name="Group 1043" transform="translate(0 61)">
        <g id="Group_1042" data-name="Group 1042">
          <path id="Path_4489" data-name="Path 4489" d="M27.953,61a3.714,3.714,0,0,0-3.585,3.29l-1.1,1.176a10.536,10.536,0,0,1-7.558,3.268H8.458a3.655,3.655,0,0,0-3.417,2.578H4.833a5.167,5.167,0,0,0,0,10.313h.208A3.772,3.772,0,0,0,7.25,83.981v6.667a3.756,3.756,0,0,0,3.625,3.867A3.756,3.756,0,0,0,14.5,90.648V84.2h1.208a10.536,10.536,0,0,1,7.558,3.268l1.1,1.176a3.714,3.714,0,0,0,3.585,3.29,3.756,3.756,0,0,0,3.625-3.867v-23.2A3.756,3.756,0,0,0,27.953,61ZM4.833,79.047a2.584,2.584,0,0,1,0-5.156Zm7.25,11.6a1.211,1.211,0,1,1-2.417,0V84.2h2.417ZM14.5,81.625H8.458A1.252,1.252,0,0,1,7.25,80.336V72.6a1.252,1.252,0,0,1,1.208-1.289H14.5Zm9.828,3.381a12.8,12.8,0,0,0-7.419-3.323V71.254a12.794,12.794,0,0,0,7.419-3.323Zm4.833,3.064a1.252,1.252,0,0,1-1.208,1.289h0a1.252,1.252,0,0,1-1.208-1.289v-23.2a1.211,1.211,0,1,1,2.417,0Z" transform="translate(0 -61)" fill="#fff"/>
        </g>
      </g>
    </g>
    <g id="Ellipse_145" data-name="Ellipse 145" transform="translate(311 335)" fill="none" stroke="#5f99d5" stroke-width="4">
      <circle cx="39.5" cy="39.5" r="39.5" stroke="none"/>
      <circle cx="39.5" cy="39.5" r="37.5" fill="none"/>
    </g>
  </g>
</svg>
